<?xml version="1.0" standalone="no"?>
<!DOCTYPE svg PUBLIC "-//W3C//DTD SVG 20010904//EN"
 "http://www.w3.org/TR/2001/REC-SVG-20010904/DTD/svg10.dtd">
<svg version="1.0" xmlns="http://www.w3.org/2000/svg"
 width="500.000000pt" height="500.000000pt" viewBox="0 0 500.000000 500.000000"
 preserveAspectRatio="xMidYMid meet">

<g transform="translate(0.000000,500.000000) scale(0.100000,-0.100000)"
fill="#000000" stroke="none">
<path d="M2478 4162 c-9 -20 -27 -59 -39 -87 -12 -27 -51 -111 -86 -185 -36
-74 -71 -151 -78 -170 -7 -19 -44 -100 -83 -180 -38 -80 -84 -179 -102 -220
-18 -41 -54 -118 -79 -170 -26 -52 -53 -111 -61 -130 -7 -19 -29 -66 -48 -105
-19 -38 -63 -135 -99 -215 -36 -80 -87 -189 -114 -242 -27 -54 -49 -102 -49
-107 0 -5 -34 -79 -75 -164 -41 -86 -75 -158 -75 -161 0 -3 -34 -76 -75 -162
-41 -86 -75 -163 -75 -170 0 -7 24 -29 54 -49 29 -19 73 -52 97 -73 24 -21 69
-57 99 -79 30 -23 120 -92 200 -154 80 -62 181 -140 225 -174 44 -33 132 -101
195 -150 63 -49 155 -119 204 -157 l88 -68 32 26 c17 13 85 66 150 117 66 51
165 128 221 172 57 44 138 107 181 140 42 33 134 104 203 158 69 53 160 123
201 155 41 32 96 73 123 91 26 17 47 38 47 46 0 7 -34 84 -75 170 -41 87 -75
161 -75 166 0 4 -30 68 -66 141 -36 73 -74 154 -84 180 -11 25 -52 117 -93
205 -41 87 -82 176 -92 198 -10 22 -39 83 -64 135 -26 52 -53 111 -61 130 -7
19 -48 108 -91 197 -42 89 -81 172 -85 185 -4 13 -37 85 -75 161 -37 76 -71
148 -75 159 -3 12 -37 85 -74 162 -37 78 -76 161 -87 186 -49 112 -57 130 -62
130 -3 0 -14 -17 -23 -38z m79 -892 c24 -58 75 -173 114 -256 38 -83 69 -153
69 -156 0 -4 20 -48 43 -100 24 -51 61 -131 82 -178 20 -47 70 -158 111 -247
41 -89 74 -165 74 -170 0 -4 7 -21 16 -38 43 -83 144 -316 144 -333 0 -14 -87
-84 -301 -243 -165 -123 -322 -241 -348 -261 -27 -21 -54 -38 -61 -38 -6 0
-33 16 -58 35 -26 20 -93 70 -149 113 -56 42 -194 146 -307 229 -199 148 -205
153 -197 180 5 16 45 108 90 205 44 98 81 180 81 183 0 3 17 42 38 88 21 45
53 116 72 157 18 41 54 122 80 180 26 58 100 222 164 365 161 359 179 396 189
392 5 -1 29 -50 54 -107z"/>
</g>
</svg>
