<svg width="173" height="29" viewBox="0 0 173 29" fill="none" xmlns="http://www.w3.org/2000/svg">
<path d="M172 0.759766H113.098V27.6844H172V0.759766Z" stroke="white" stroke-miterlimit="10"/>
<path d="M124.445 23.6369C123.219 23.6369 122.034 23.4056 120.891 22.9429C119.748 22.4802 118.74 21.8226 117.867 20.9714L119.762 18.7774C120.412 19.3884 121.156 19.8843 121.992 20.2629C122.829 20.6426 123.664 20.8319 124.501 20.8319C125.541 20.8319 126.33 20.6193 126.869 20.1932C127.408 19.767 127.678 19.2024 127.678 18.4995C127.678 18.1298 127.608 17.8143 127.469 17.5553C127.33 17.2962 127.135 17.0693 126.884 16.8745C126.633 16.6797 126.336 16.4992 125.992 16.3332C125.647 16.1671 125.272 16 124.863 15.8328L122.354 14.7502C121.909 14.5654 121.467 14.334 121.03 14.0562C120.593 13.7783 120.198 13.4451 119.846 13.0566C119.493 12.668 119.209 12.2142 118.996 11.6961C118.782 11.1781 118.675 10.5858 118.675 9.91833C118.675 9.19659 118.828 8.52578 119.135 7.90477C119.441 7.28487 119.864 6.74356 120.402 6.27975C120.941 5.81704 121.587 5.45617 122.34 5.19714C123.092 4.93811 123.914 4.80859 124.806 4.80859C125.865 4.80859 126.887 5.0167 127.872 5.43292C128.857 5.84914 129.702 6.40926 130.409 7.11329L128.764 9.16781C128.17 8.68628 127.557 8.3066 126.925 8.02875C126.293 7.7509 125.587 7.61253 124.806 7.61253C123.933 7.61253 123.235 7.80293 122.715 8.18151C122.195 8.5612 121.935 9.08368 121.935 9.75008C121.935 10.1021 122.014 10.4032 122.172 10.6523C122.33 10.9024 122.543 11.1238 122.813 11.3186C123.082 11.5135 123.393 11.6895 123.746 11.8467C124.1 12.0039 124.462 12.1566 124.833 12.3049L127.314 13.3322C127.852 13.5547 128.345 13.8137 128.791 14.1093C129.237 14.406 129.622 14.748 129.948 15.1366C130.272 15.5251 130.528 15.9745 130.714 16.4837C130.9 16.9929 130.993 17.5807 130.993 18.2471C130.993 18.9877 130.844 19.6817 130.548 20.3304C130.25 20.9791 129.818 21.5481 129.251 22.0385C128.684 22.5289 127.997 22.9185 127.189 23.2052C126.382 23.493 125.466 23.6369 124.445 23.6369Z" fill="#F15B25"/>
<path d="M141.948 23.6361C140.759 23.6361 139.672 23.418 138.688 22.983C137.702 22.5479 136.857 21.9181 136.152 21.0945C135.445 20.2709 134.897 19.2758 134.507 18.109C134.117 16.9423 133.922 15.6195 133.922 14.1383C133.922 12.676 134.117 11.3665 134.507 10.2086C134.897 9.05184 135.445 8.0755 136.152 7.27849C136.857 6.48258 137.702 5.87154 138.688 5.44536C139.672 5.02028 140.76 4.80664 141.948 4.80664C143.137 4.80664 144.224 5.02028 145.209 5.44536C146.193 5.87154 147.043 6.48258 147.759 7.27849C148.474 8.0744 149.026 9.05184 149.417 10.2086C149.807 11.3665 150.003 12.676 150.003 14.1383C150.003 15.6195 149.807 16.9434 149.417 18.109C149.027 19.2758 148.474 20.2709 147.759 21.0945C147.043 21.9181 146.193 22.5479 145.209 22.983C144.224 23.418 143.137 23.6361 141.948 23.6361ZM141.948 20.831C142.673 20.831 143.323 20.6738 143.899 20.3584C144.475 20.044 144.968 19.5946 145.377 19.0112C145.786 18.4278 146.101 17.7249 146.325 16.9002C146.548 16.0766 146.659 15.1556 146.659 14.1372C146.659 12.1004 146.236 10.5042 145.391 9.3463C144.546 8.18952 143.398 7.61058 141.95 7.61058C140.5 7.61058 139.352 8.18952 138.508 9.3463C137.662 10.5031 137.24 12.1004 137.24 14.1372C137.24 15.1556 137.351 16.0766 137.575 16.9002C137.798 17.7238 138.113 18.4278 138.522 19.0112C138.931 19.5946 139.423 20.044 140 20.3584C140.573 20.6738 141.223 20.831 141.948 20.831Z" fill="#F15D2F"/>
<path d="M161.486 23.6361C160.334 23.6361 159.256 23.4324 158.253 23.025C157.25 22.6177 156.381 22.0166 155.647 21.2196C154.912 20.4237 154.332 19.4418 153.905 18.2762C153.477 17.1094 153.264 15.7766 153.264 14.2767C153.264 12.7956 153.481 11.4672 153.919 10.2916C154.356 9.11605 154.95 8.12089 155.703 7.30616C156.455 6.49144 157.338 5.87154 158.351 5.44536C159.363 5.02028 160.445 4.80664 161.598 4.80664C162.75 4.80664 163.772 5.038 164.664 5.50071C165.556 5.96342 166.29 6.50029 166.866 7.11134L165.139 9.19354C164.655 8.71201 164.135 8.32789 163.578 8.04119C163.02 7.75448 162.388 7.61058 161.682 7.61058C160.939 7.61058 160.256 7.76334 159.634 8.06886C159.011 8.37438 158.473 8.80942 158.017 9.37397C157.562 9.93852 157.21 10.6282 156.959 11.4429C156.708 12.2576 156.582 13.1742 156.582 14.1926C156.582 16.2659 157.032 17.8909 157.934 19.0665C158.835 20.2421 160.057 20.8299 161.599 20.8299C162.417 20.8299 163.141 20.6595 163.773 20.3163C164.404 19.9742 164.981 19.5248 165.501 18.9691L167.228 20.996C166.485 21.8483 165.635 22.5003 164.679 22.9542C163.72 23.4092 162.656 23.6361 161.486 23.6361Z" fill="#F15B25"/>
<path d="M74.4452 2.63867C79.4456 7.84583 84.3227 12.9246 89.212 18.0155C89.4331 17.8007 89.342 17.5749 89.342 17.379C89.3486 13.198 89.3453 9.0181 89.3475 4.8371C89.3475 3.96703 89.2653 4.05226 90.1052 4.04784C90.7329 4.04451 91.3606 4.06333 91.9871 4.04119C92.346 4.02902 92.4671 4.17403 92.4293 4.50612C92.4182 4.60132 92.4282 4.69762 92.4282 4.79393C92.4282 11.4733 92.4282 18.1528 92.426 24.8322C92.426 25.0381 92.4771 25.2539 92.3249 25.5384C87.4467 20.4718 82.5996 15.4374 77.7281 10.3786C77.4681 10.6221 77.5626 10.8977 77.5615 11.1357C77.5548 15.268 77.5581 19.4014 77.5559 23.5337C77.5559 24.5322 77.6259 24.3816 76.7205 24.3916C76.1172 24.3982 75.514 24.3794 74.9107 24.3982C74.5808 24.4082 74.4019 24.3196 74.4408 23.9577C74.4564 23.8149 74.443 23.6699 74.443 23.526C74.443 16.8465 74.443 10.1671 74.443 3.48771C74.4452 3.25968 74.4452 3.03054 74.4452 2.63867Z" fill="white"/>
<path d="M39.4587 14.1647C39.4587 11.0686 39.4587 7.97239 39.4587 4.87511C39.4587 4.70685 39.4654 4.53859 39.4587 4.37144C39.4476 4.11905 39.582 4.0305 39.8131 4.04157C39.8376 4.04267 39.8609 4.04046 39.8853 4.04046C42.125 4.07699 44.368 3.94637 46.6032 4.2065C51.3625 4.76109 54.8043 8.28013 55.2375 13.0312C55.3564 14.3341 55.302 15.6237 54.9909 16.8912C53.9988 20.936 50.5316 23.8717 46.3611 24.2713C44.218 24.4772 42.0728 24.3444 39.9298 24.4019C39.5265 24.413 39.451 24.2348 39.4532 23.8861C39.4643 22.2777 39.4576 20.6693 39.4576 19.0619C39.4587 17.4292 39.4587 15.7975 39.4587 14.1647ZM42.5994 14.1681C42.5994 14.4315 42.5994 14.6961 42.5994 14.9595C42.5994 16.951 42.596 18.9413 42.6016 20.9327C42.6027 21.4796 42.6127 21.4796 43.1604 21.4917C44.0769 21.5128 44.9901 21.4729 45.9011 21.3733C48.8685 21.0478 51.2726 18.9579 51.9513 16.0798C52.2069 14.995 52.2413 13.8957 52.0347 12.7954C51.5214 10.0513 49.975 8.20596 47.2665 7.38238C45.9367 6.97834 44.5658 6.93185 43.1893 6.95288C42.6083 6.96173 42.6005 6.96284 42.5994 7.54842C42.5972 9.7546 42.5994 11.9608 42.5994 14.1681Z" fill="white"/>
<path d="M28.4724 24.395C27.2203 24.395 26.1349 24.374 25.0518 24.4061C24.6496 24.4182 24.5074 24.1758 24.3285 23.9201C22.9354 21.9309 21.5412 19.9417 20.1469 17.9536C19.8014 17.461 19.4581 16.9684 19.1104 16.478C19.0149 16.3429 18.9382 16.1869 18.7693 16.116C18.536 16.0175 18.3372 16.1182 18.3083 16.3728C18.2872 16.5632 18.2994 16.7569 18.2983 16.9484C18.2983 19.2299 18.3005 21.5125 18.2961 23.7939C18.295 24.385 18.2872 24.3895 17.7073 24.3939C17.0318 24.3994 16.3564 24.3817 15.6809 24.4005C15.3498 24.4094 15.1743 24.3186 15.2121 23.9599C15.2276 23.8172 15.2143 23.6721 15.2143 23.5282C15.2143 17.3071 15.2143 11.0849 15.2143 4.86373C15.2143 4.71983 15.2254 4.57482 15.2132 4.43202C15.1888 4.16192 15.2865 4.03351 15.5743 4.03905C17.5262 4.07447 19.4859 3.92392 21.4256 4.2383C22.7777 4.45748 24.0175 4.91355 25.0418 5.89542C27.6292 8.3717 27.3214 14.0438 22.7621 15.5736C22.6043 15.6267 22.4244 15.6223 22.2222 15.8249C24.2674 18.6277 26.3216 21.4449 28.4724 24.395ZM18.2994 10.1262C18.2994 11.0605 18.3005 11.9937 18.2983 12.928C18.2983 13.1505 18.2816 13.373 18.606 13.3774C19.6914 13.3918 20.7757 13.3829 21.8 12.9612C23.0809 12.4343 23.7009 11.3649 23.6275 9.84617C23.5642 8.52778 22.861 7.65549 21.5389 7.23485C20.6057 6.93818 19.6437 6.95589 18.6827 6.94593C18.3416 6.94261 18.2939 7.11751 18.2961 7.39425C18.305 8.30639 18.2994 9.21631 18.2994 10.1262Z" fill="white"/>
<path d="M59.1332 14.1727C59.1332 11.0743 59.1332 7.97706 59.1332 4.87867C59.1332 4.71041 59.1432 4.54215 59.1321 4.375C59.1166 4.1215 59.2454 4.03405 59.4787 4.0407C59.6232 4.04512 59.7676 4.03959 59.9131 4.03959C63.1693 4.03959 66.4255 4.03959 69.6817 4.03959C69.8028 4.03959 69.9239 4.04844 70.0439 4.03959C70.3183 4.01856 70.4316 4.13036 70.426 4.41153C70.4138 5.10781 70.4083 5.8052 70.4283 6.50037C70.4382 6.84353 70.3194 6.96308 69.9705 6.95754C68.8851 6.94094 67.7997 6.95201 66.7143 6.95201C65.4356 6.95201 64.1581 6.94979 62.8794 6.95312C62.2761 6.95533 62.2672 6.96086 62.265 7.52542C62.2594 8.72647 62.2606 9.92753 62.2639 11.1275C62.2661 11.7994 62.2705 11.806 62.9271 11.8071C65.0501 11.8105 67.1721 11.8083 69.2951 11.8083C69.4639 11.8083 69.6339 11.8193 69.8017 11.8071C70.1261 11.7839 70.2149 11.9444 70.2094 12.2411C70.1961 12.913 70.1883 13.586 70.2116 14.258C70.2249 14.6565 70.045 14.7329 69.6895 14.7306C67.5664 14.7185 65.4445 14.724 63.3215 14.724C63.1526 14.724 62.9838 14.7207 62.8149 14.7251C62.2772 14.7373 62.2672 14.7373 62.2661 15.2908C62.2617 17.1405 62.2617 18.9891 62.2661 20.8389C62.2672 21.4787 62.275 21.4831 62.9616 21.4842C65.1801 21.4864 67.3998 21.4853 69.6184 21.4853C69.7872 21.4853 69.9561 21.4909 70.125 21.4875C70.3371 21.4831 70.4238 21.5861 70.4227 21.7931C70.4183 22.5613 70.4194 23.3295 70.4194 24.0989C70.4194 24.3092 70.3127 24.4 70.1072 24.3955C69.9628 24.3922 69.8183 24.3977 69.6728 24.3977C66.4166 24.3977 63.1604 24.3977 59.9042 24.3977C59.7354 24.3977 59.5665 24.3977 59.3976 24.3922C59.221 24.3878 59.1388 24.2882 59.1366 24.1177C59.1343 23.9251 59.1332 23.7336 59.1332 23.541C59.1332 20.4171 59.1332 17.2944 59.1332 14.1727Z" fill="white"/>
<path d="M7.80062 15.6786C7.80062 18.2966 7.80062 20.9157 7.80062 23.5336C7.80062 23.7019 7.79617 23.8701 7.79951 24.0384C7.80395 24.2675 7.71841 24.3971 7.46511 24.396C6.64523 24.3904 5.82424 24.3904 5.00436 24.3948C4.7444 24.396 4.67552 24.2554 4.68218 24.0307C4.68774 23.8392 4.68218 23.6465 4.68218 23.4539C4.68218 18.2888 4.68218 13.1238 4.68218 7.95977C4.68218 6.95243 4.68218 6.95243 3.63456 6.95243C2.57249 6.95243 1.51153 6.93915 0.450579 6.95908C0.095075 6.96572 -0.00935427 6.84285 0.000644273 6.50301C0.0206414 5.80673 0.0150866 5.10934 0.00286617 4.41306C-0.00268857 4.13743 0.0906312 4.02009 0.376145 4.03669C0.664992 4.0533 0.954949 4.04002 1.24491 4.04002C4.69551 4.04002 8.14501 4.04002 11.5956 4.04002C11.7645 4.04002 11.9345 4.05108 12.1022 4.03891C12.3777 4.01788 12.4922 4.12636 12.4877 4.40863C12.4766 5.10491 12.471 5.8023 12.4899 6.49858C12.4999 6.84063 12.3822 6.9635 12.0333 6.95797C10.9002 6.94247 9.76589 6.95243 8.63161 6.95243C8.46274 6.95243 8.29388 6.95686 8.12501 6.95465C7.92282 6.95133 7.80728 7.03546 7.80728 7.24799C7.80728 7.4406 7.80284 7.63211 7.80284 7.82472C7.80062 10.4416 7.80062 13.0595 7.80062 15.6786Z" fill="white"/>
<path d="M99.8343 15.6271C99.8343 13.0567 99.8343 10.4863 99.8343 7.91596C99.8343 7.77205 99.8377 7.62704 99.8332 7.48313C99.8199 6.96729 99.8188 6.95733 99.32 6.95401C98.379 6.94626 97.438 6.95179 96.4971 6.95179C96.1838 6.95179 95.8694 6.94294 95.5561 6.95401C95.2906 6.96286 95.1561 6.87431 95.1595 6.58649C95.1695 5.86586 95.1695 5.14523 95.1584 4.4246C95.1539 4.1545 95.2428 4.01945 95.5283 4.03937C95.6727 4.04934 95.8172 4.04048 95.9627 4.04048C99.5822 4.04048 103.201 4.04048 106.82 4.04048C106.964 4.04048 107.11 4.04934 107.254 4.03937C107.519 4.02166 107.651 4.10468 107.644 4.40135C107.628 5.12198 107.628 5.84262 107.644 6.56325C107.652 6.89423 107.497 6.95954 107.207 6.95622C106.049 6.94626 104.89 6.95179 103.733 6.9529C103.564 6.9529 103.395 6.95622 103.226 6.95733C103.045 6.95843 102.972 7.06028 102.969 7.22853C102.967 7.42114 102.965 7.61265 102.965 7.80526C102.965 13.0667 102.966 18.328 102.964 23.5883C102.964 24.4794 103.045 24.392 102.145 24.3964C101.566 24.3986 100.986 24.402 100.408 24.3953C99.8488 24.3887 99.8399 24.3842 99.8366 23.844C99.8299 22.7869 99.8343 21.7297 99.8343 20.6726C99.8343 18.99 99.8343 17.3085 99.8343 15.6271Z" fill="white"/>
<path d="M34.6028 14.244C34.6028 17.3391 34.6028 20.4341 34.6028 23.5292C34.6028 23.6975 34.5961 23.8657 34.6028 24.0329C34.6117 24.2753 34.4995 24.3771 34.2573 24.376C33.4619 24.3705 32.6664 24.3694 31.8721 24.3782C31.6033 24.3816 31.4633 24.2908 31.4822 24.0063C31.491 23.8635 31.4833 23.7185 31.4833 23.5746C31.4833 17.3125 31.4833 11.0504 31.4833 4.78832C31.4833 4.71636 31.4822 4.64441 31.4833 4.57246C31.4933 4.03448 31.4933 4.02894 32.0432 4.02451C32.7175 4.01787 33.393 4.01787 34.0673 4.02451C34.5961 4.03005 34.6028 4.03669 34.6039 4.59903C34.6073 7.19043 34.605 9.78183 34.605 12.3732C34.6028 12.9964 34.6028 13.6208 34.6028 14.244Z" fill="#F15B25"/>
</svg>
