<svg width="157" height="33" viewBox="0 0 157 33" fill="none" xmlns="http://www.w3.org/2000/svg">
<g clip-path="url(#clip0_5021_4966)">
<path d="M8.38254 21.2159L-0.261719 1.07812H3.00835C3.00835 1.07812 8.28601 14.0543 8.38405 14.5144C8.49868 14.0287 13.7718 1.07812 13.7718 1.07812H17.0283L8.38254 21.2159Z" fill="white"/>
<path d="M29.9941 20.4783V1.07812H33.1828V20.4783H29.9941Z" fill="white"/>
<path d="M39.2942 11.7984V20.4789H36.3711V1.0787H40.7181C41.7151 1.05306 42.7106 1.13752 43.688 1.33059C45.1209 1.63075 46.3125 2.62323 46.8676 3.97771C47.1964 4.74847 47.3608 5.57806 47.3533 6.41669C47.3533 7.97028 46.9852 9.18599 46.2507 10.0669C45.5146 10.9462 44.4181 11.4741 42.961 11.6506L49.566 20.4774H46.035L39.2942 11.7984ZM39.427 9.31571H39.9956C41.6699 9.31571 42.7815 9.12113 43.3321 8.73349C43.8826 8.34585 44.1571 7.65352 44.1571 6.65953C44.1571 5.58711 43.863 4.83143 43.2747 4.39401C42.6865 3.9566 41.5945 3.73487 39.9986 3.73185H39.427V9.31269V9.31571Z" fill="white"/>
<path d="M65.7145 20.4784L63.4897 15.43H55.7233L53.4457 20.4784H50.0957L59.5846 0.0917969L69.0736 20.4784H65.7145ZM56.9345 12.7708H62.3434C62.3434 12.7708 59.7505 6.59271 59.6269 6.15077C59.5137 6.57763 56.9345 12.7708 56.9345 12.7708Z" fill="white"/>
<path d="M74.2278 21.2159L65.582 1.07812H68.8521C68.8521 1.07812 74.1298 14.0543 74.2278 14.5144C74.3424 14.0287 79.6156 1.07812 79.6156 1.07812H82.863L74.2278 21.2159Z" fill="white"/>
<path d="M20.4645 0.304688L13.3301 15.6882L20.4645 21.2042L27.5959 15.6882L20.4645 0.304688ZM16.0979 15.1331L20.4645 5.36967L24.8311 15.1271L20.4645 18.3836L16.0979 15.1331Z" fill="#F15C2D"/>
<path opacity="0.75" d="M24.7924 15.127L20.4258 18.3865V21.204L27.5602 15.6865L24.7924 15.127Z" fill="#191516"/>
<path opacity="0.45" d="M16.0608 15.127L20.4274 18.3865V21.204L13.293 15.6865L16.0608 15.127Z" fill="#191516"/>
<path opacity="0.3" d="M20.4258 0.300781V5.36576L24.7924 15.1277L27.5602 15.6873L20.4258 0.300781Z" fill="#191516"/>
<path d="M98.6901 3.73457V20.4786H95.5015V3.73457H90.4531V1.08594H103.873V3.73457H98.6901Z" fill="#F15C2D"/>
<path d="M106.266 20.4783V1.07812H117.162V3.72676H109.454V8.64241H117.162V11.2895H109.454V17.534H117.162V20.4572L106.266 20.4783Z" fill="#F15C2D"/>
<path d="M136.322 5.78037C135.485 5.05335 134.529 4.47566 133.496 4.07294C132.496 3.69284 131.434 3.49977 130.364 3.50429C128.247 3.50429 126.523 4.18455 125.194 5.54356C123.865 6.90257 123.203 8.66431 123.207 10.8257C123.207 12.9178 123.854 14.6433 125.147 16.0023C126.44 17.3614 128.07 18.0416 130.038 18.0416C131.159 18.0461 132.271 17.8395 133.315 17.4322C134.407 16.9918 135.416 16.3704 136.3 15.5921V19.1532C135.459 19.7566 134.526 20.2166 133.535 20.5153C132.48 20.8215 131.388 20.9693 130.292 20.9572C128.888 20.9708 127.494 20.7234 126.179 20.2287C123.675 19.2619 121.685 17.298 120.684 14.8077C120.172 13.5302 119.915 12.1651 119.922 10.7895C119.913 9.41847 120.171 8.05795 120.684 6.78492C121.706 4.29315 123.697 2.32478 126.2 1.33079C127.486 0.831529 128.857 0.582655 130.238 0.59623C131.343 0.590197 132.441 0.757623 133.494 1.09247C134.565 1.44241 135.579 1.9492 136.502 2.59477L136.322 5.78037Z" fill="#F15C2D"/>
<path d="M140.15 20.4783V1.07812H143.339V8.24874H152.774V1.07812H155.962V20.4783H152.774V11.0437H143.339V20.4783H140.15Z" fill="#F15C2D"/>
<path d="M32.1471 26.3271C31.8409 26.0043 31.4789 25.7404 31.0792 25.5488C30.6855 25.3739 30.2572 25.2849 29.8258 25.2909C29.0777 25.2969 28.3627 25.6016 27.8393 26.1356C27.5799 26.401 27.3748 26.7163 27.239 27.0617C27.1033 27.4222 27.0339 27.8053 27.0384 28.1914C27.0354 28.4946 27.0761 28.7963 27.1576 29.0874C27.2345 29.3559 27.3551 29.6108 27.515 29.84C27.7805 30.2247 28.1334 30.5384 28.5452 30.7586C29.3461 31.1689 30.2919 31.1855 31.1064 30.8023C31.5031 30.6078 31.8515 30.3272 32.123 29.9788V31.0814C31.7957 31.3348 31.4276 31.5263 31.0325 31.65C30.6328 31.7782 30.2165 31.8431 29.7971 31.8416C29.4321 31.8431 29.0686 31.7873 28.7202 31.6787C27.8016 31.3876 27.0324 30.7496 26.5753 29.9004C26.3053 29.377 26.1666 28.7948 26.1741 28.205C26.1681 27.7042 26.2586 27.2065 26.4426 26.7404C26.6296 26.2879 26.9102 25.8807 27.2631 25.5428C27.6025 25.211 28.0037 24.95 28.4442 24.775C29.2737 24.4613 30.1848 24.4357 31.031 24.7026C31.4548 24.8565 31.8651 25.0466 32.2557 25.2713V26.3301L32.1471 26.3271Z" fill="white"/>
<path d="M37.0343 31.6393V28.4778L34.7598 24.7266H35.6814L37.4461 27.7236L39.1943 24.7266H40.1098L37.8413 28.4778V31.6393H37.0343Z" fill="white"/>
<path d="M43.0156 31.6379V24.7297H44.4546C44.8286 24.7176 45.2027 24.7403 45.5738 24.7976C45.797 24.8413 46.0082 24.9318 46.1937 25.0646C46.4154 25.2275 46.5919 25.4447 46.708 25.6935C46.8302 25.9575 46.892 26.2456 46.889 26.5367C46.9011 26.8625 46.8091 27.1823 46.6266 27.4522C46.4395 27.7056 46.1711 27.8882 45.8649 27.9666C46.2465 28.0164 46.5949 28.214 46.8332 28.5156C47.0806 28.8475 47.2073 29.2532 47.1907 29.668C47.1922 29.9395 47.1409 30.208 47.0414 30.4599C46.9463 30.7012 46.8031 30.9214 46.6205 31.1069C46.4199 31.303 46.1711 31.4418 45.8996 31.5127C45.4244 31.6077 44.9388 31.6469 44.4546 31.6303L43.0156 31.6379ZM43.8075 25.3964V27.7856H44.4697C45.0745 27.7856 45.4999 27.6966 45.7472 27.5201C45.9961 27.3452 46.1183 27.0495 46.1183 26.6378C46.1183 26.1792 46.0036 25.8595 45.7744 25.6739C45.5451 25.4884 45.1122 25.3979 44.4682 25.3979H43.806L43.8075 25.3964ZM43.8075 28.4478V30.9757H44.447C44.7638 30.9833 45.082 30.9652 45.3958 30.9244C45.5617 30.9003 45.7216 30.8385 45.8619 30.7465C46.0097 30.6379 46.1258 30.493 46.1967 30.3256C46.2797 30.1371 46.3219 29.9335 46.3204 29.7283C46.3279 29.4991 46.2766 29.2713 46.1726 29.0662C46.0775 28.8791 45.9297 28.7253 45.7472 28.6242C45.6296 28.5564 45.4999 28.5081 45.3656 28.4824C45.1409 28.4493 44.9146 28.4342 44.6884 28.4402H43.806L43.8075 28.4478Z" fill="white"/>
<path d="M50.4551 31.6386V24.7305H54.1776V25.3926H51.3857V27.3791H54.1776V28.1785H51.3857V30.8256H54.1776V31.6401H50.4551V31.6386Z" fill="white"/>
<path d="M57.5 31.639V24.7308H59.1124C59.4503 24.7203 59.7881 24.7459 60.1215 24.8078C60.3266 24.8545 60.5197 24.945 60.6871 25.0732C60.8983 25.2406 61.0612 25.4609 61.1622 25.7112C61.2769 25.9918 61.3327 26.2919 61.3297 26.5936C61.3628 27.0672 61.1924 27.5333 60.8591 27.8727C60.5453 28.1668 60.0853 28.3146 59.4774 28.3146H59.3387L61.9647 31.6239H60.9254L58.4171 28.3297H58.2979V31.639H57.5ZM58.2964 25.393V27.7852H58.948C59.6102 27.7852 60.0506 27.6992 60.2723 27.5288C60.4925 27.3583 60.6072 27.0582 60.6072 26.6328C60.6072 26.1743 60.4925 25.8515 60.2603 25.669C60.028 25.4865 59.5981 25.393 58.9359 25.393H58.2964Z" fill="white"/>
<path d="M69.4592 31.6381V24.7299H70.7835C71.4788 24.7073 72.1727 24.7571 72.8574 24.8777C73.2406 24.9682 73.5995 25.1372 73.9118 25.377C74.3084 25.6832 74.6192 26.0874 74.8137 26.549C75.221 27.6033 75.221 28.7707 74.8137 29.8251C74.6192 30.2866 74.3084 30.6893 73.9087 30.9925C73.6041 31.2278 73.2526 31.3983 72.8785 31.4918C72.2858 31.6094 71.6824 31.6592 71.0776 31.6396H69.4531L69.4592 31.6381ZM70.3898 30.8417H70.9222C71.5195 30.8613 72.1183 30.8236 72.7096 30.7286C73.0128 30.6667 73.2964 30.5355 73.5377 30.3424C73.8333 30.0951 74.0611 29.7768 74.1998 29.4178C74.4985 28.5807 74.4985 27.6651 74.1998 26.828C74.0611 26.469 73.8333 26.1523 73.5377 25.9064C73.2933 25.7103 73.0053 25.5746 72.6976 25.5112C72.1108 25.4147 71.515 25.3755 70.9207 25.3936H70.3883V30.8417H70.3898Z" fill="white"/>
<path d="M78.4941 31.6386V24.7305H82.2137V25.3926H79.4218V27.3791H82.2137V28.1785H79.4218V30.8256H82.2137V31.6401H78.4941V31.6386Z" fill="white"/>
<path d="M85.5352 31.6386V24.5977H89.2622V25.3941H86.4658V27.3805H89.2622V28.1799H86.4658V31.6401H85.5352V31.6386Z" fill="white"/>
<path d="M92.4473 31.6386V24.7305H96.0356V25.3926H93.2361V27.3791H96.028V28.1785H93.2361V30.8256H96.028V31.6401H92.4473V31.6386Z" fill="white"/>
<path d="M99.4883 31.6378V24.4551L104.54 29.9711V24.7281H105.336V31.9062L100.297 26.4476V31.6378H99.4883Z" fill="white"/>
<path d="M108.924 31.6381V24.7299H110.248C110.943 24.7073 111.637 24.7571 112.322 24.8777C112.705 24.9682 113.064 25.1372 113.376 25.377C113.775 25.6832 114.085 26.0859 114.278 26.549C114.686 27.6033 114.686 28.7707 114.278 29.8251C114.084 30.2866 113.773 30.6893 113.376 30.9925C113.07 31.2278 112.719 31.3983 112.343 31.4918C111.752 31.6094 111.149 31.6592 110.545 31.6396L108.924 31.6381ZM109.854 30.8417H110.387C110.984 30.8613 111.583 30.8236 112.174 30.7286C112.477 30.6682 112.761 30.5355 113.002 30.3424C113.298 30.0966 113.527 29.7783 113.665 29.4178C113.963 28.5807 113.963 27.6651 113.665 26.828C113.526 26.469 113.298 26.1523 113.002 25.9064C112.758 25.7103 112.47 25.5746 112.162 25.5112C111.578 25.4147 110.987 25.377 110.397 25.3936H109.868V30.8417H109.854Z" fill="white"/>
<path d="M117.959 31.6386V24.5977H121.679V25.3941H118.89V27.3805H121.679V28.1799H118.89V30.8271H121.679V31.6386H117.959Z" fill="white"/>
<path d="M125.008 31.6389V24.7307H126.619C126.958 24.7202 127.296 24.7473 127.629 24.8077C127.834 24.8544 128.027 24.9449 128.195 25.0731C128.405 25.2421 128.566 25.4608 128.667 25.7112C128.782 25.9917 128.839 26.2919 128.837 26.5935C128.871 27.0687 128.699 27.5332 128.365 27.8726C128.052 28.1667 127.592 28.3145 126.987 28.3145H126.845L129.472 31.6238H128.433L125.922 28.3145H125.804V31.6238H125.008V31.6389ZM125.806 25.3929V27.7851H126.454C127.116 27.7851 127.557 27.6991 127.779 27.5287C127.999 27.3583 128.116 27.0581 128.116 26.6328C128.116 26.1742 127.999 25.8514 127.77 25.6689C127.54 25.4864 127.107 25.3929 126.445 25.3929H125.806Z" fill="white"/>
</g>
<defs>
<clipPath id="clip0_5021_4966">
<rect width="156" height="32" fill="white" transform="translate(0.351562 0.5)"/>
</clipPath>
</defs>
</svg>
